<?xml version="1.0" encoding="utf-8"?>
<!-- Generator: Adobe Illustrator 23.0.3, SVG Export Plug-In . SVG Version: 6.00 Build 0)  -->
<svg version="1.1" id="Layer_1" xmlns="http://www.w3.org/2000/svg" xmlns:xlink="http://www.w3.org/1999/xlink" x="0px" y="0px"
	 viewBox="0 0 36 21" style="enable-background:new 0 0 36 21;" xml:space="preserve">
<style type="text/css">
	.st0{fill:#949494;}
</style>
<path class="st0" d="M23.5,1.4h9v2h-9V1.4z M14.5,9.4c2-0.9,3-2.2,3-4.3C17.5,1,14.2,0,10.4,0H0v20.6h10.8c4,0,7.8-1.8,7.8-6
	C18.5,12,17.2,10.1,14.5,9.4L14.5,9.4z M4.9,3.5h4.6c1.8,0,3.3,0.5,3.3,2.4c0,1.7-1.2,2.5-3,2.5H4.9V3.5z M10.1,17.1H4.9v-5.7h5.3
	c2.1,0,3.5,0.8,3.5,2.9C13.7,16.4,12.1,17.1,10.1,17.1L10.1,17.1z M36,13.4c0-4.4-2.8-8.1-7.8-8.1c-4.9,0-8.2,3.4-8.2,7.9
	c0,4.6,3.2,7.8,8.2,7.8c3.8,0,6.3-1.6,7.5-5h-3.9c-0.4,1.3-2.1,1.9-3.5,1.9c-2.6,0-3.9-1.4-3.9-3.8H36C36,13.9,36,13.6,36,13.4
	L36,13.4z M24.4,11.5c0.1-2,1.6-3.2,3.7-3.2c2.2,0,3.3,1.2,3.5,3.2H24.4z"/>
</svg>
