<?xml version="1.0" encoding="utf-8"?>
<!-- Generator: Adobe Illustrator 23.0.3, SVG Export Plug-In . SVG Version: 6.00 Build 0)  -->
<svg version="1.1" id="Layer_1" xmlns="http://www.w3.org/2000/svg" xmlns:xlink="http://www.w3.org/1999/xlink" x="0px" y="0px"
	 viewBox="0 0 21 21" style="enable-background:new 0 0 21 21;" xml:space="preserve">
<style type="text/css">
	.st0{fill:#949494;}
</style>
<g id="XMLID_801_">
	<path id="XMLID_802_" class="st0" d="M4.9,6.8H0.7c-0.2,0-0.3,0.2-0.3,0.3v13.5c0,0.2,0.2,0.3,0.3,0.3h4.2c0.2,0,0.3-0.2,0.3-0.3
		V7.1C5.2,6.9,5.1,6.8,4.9,6.8z"/>
	<path id="XMLID_803_" class="st0" d="M2.8,0C1.2,0,0,1.3,0,2.8c0,1.5,1.2,2.8,2.8,2.8c1.5,0,2.8-1.2,2.8-2.8C5.6,1.3,4.3,0,2.8,0z"
		/>
	<path id="XMLID_804_" class="st0" d="M15.6,6.4c-1.7,0-2.9,0.7-3.7,1.6V7.1c0-0.2-0.2-0.3-0.3-0.3h-4c-0.2,0-0.3,0.2-0.3,0.3v13.5
		c0,0.2,0.2,0.3,0.3,0.3h4.2c0.2,0,0.3-0.2,0.3-0.3v-6.7c0-2.3,0.6-3.1,2.2-3.1c1.7,0,1.9,1.4,1.9,3.3v6.6c0,0.2,0.2,0.3,0.3,0.3
		h4.2c0.2,0,0.3-0.2,0.3-0.3v-7.4C21,9.9,20.4,6.4,15.6,6.4z"/>
</g>
</svg>
