<?xml version="1.0" encoding="utf-8"?>
<!-- Generator: Adobe Illustrator 23.0.3, SVG Export Plug-In . SVG Version: 6.00 Build 0)  -->
<svg version="1.1" id="Layer_1" xmlns="http://www.w3.org/2000/svg" xmlns:xlink="http://www.w3.org/1999/xlink" x="0px" y="0px"
	 viewBox="0 0 21 21" style="enable-background:new 0 0 21 21;" xml:space="preserve">
<style type="text/css">
	.st0{fill:#949494;}
</style>
<g id="XMLID_13_">
	<path id="XMLID_17_" class="st0" d="M14.7,0H6.3C2.8,0,0,2.8,0,6.3v8.5C0,18.2,2.8,21,6.3,21h8.5c3.4,0,6.3-2.8,6.3-6.3V6.3
		C21,2.8,18.2,0,14.7,0z M18.9,14.7c0,2.3-1.9,4.1-4.1,4.1H6.3c-2.3,0-4.1-1.9-4.1-4.1V6.3C2.1,4,4,2.1,6.3,2.1h8.5
		c2.3,0,4.1,1.9,4.1,4.1L18.9,14.7L18.9,14.7z"/>
	<path id="XMLID_81_" class="st0" d="M10.5,5.1c-3,0-5.4,2.4-5.4,5.4s2.4,5.4,5.4,5.4s5.4-2.4,5.4-5.4S13.5,5.1,10.5,5.1z
		 M10.5,13.8c-1.8,0-3.3-1.5-3.3-3.3s1.5-3.3,3.3-3.3c1.8,0,3.3,1.5,3.3,3.3C13.8,12.3,12.3,13.8,10.5,13.8z"/>
	<circle id="XMLID_83_" class="st0" cx="15.9" cy="5.1" r="1.3"/>
</g>
</svg>
